<mxfile host="app.diagrams.net" agent="Mozilla/5.0 (X11; Ubuntu; Linux x86_64; rv:138.0) Gecko/20100101 Firefox/138.0" version="27.0.5">
  <diagram name="Page-1" id="z5Xsl6-qqsVyxkFDK0Dj">
    <mxGraphModel dx="1188" dy="689" grid="0" gridSize="10" guides="1" tooltips="1" connect="1" arrows="1" fold="1" page="1" pageScale="1" pageWidth="850" pageHeight="1100" math="1" shadow="0">
      <root>
        <mxCell id="0" />
        <mxCell id="1" parent="0" />
        <mxCell id="5-6KHhTlgi9XyhgY7AJ1-14" value="Image Encoder" style="shape=trapezoid;perimeter=trapezoidPerimeter;whiteSpace=wrap;html=1;fixedSize=1;dashed=1;fillColor=#e1d5e7;strokeColor=#9673a6;" vertex="1" parent="1">
          <mxGeometry x="398.5" y="215.5" width="120" height="47" as="geometry" />
        </mxCell>
        <mxCell id="QH8VUiAYbnz4mCAAy0Q9-4" value="&lt;font style=&quot;font-size: 14px;&quot;&gt;Language Model&lt;/font&gt;" style="rounded=0;whiteSpace=wrap;html=1;dashed=1;fillColor=#bac8d3;strokeColor=#23445d;align=left;" parent="1" vertex="1">
          <mxGeometry x="188" y="80" width="346" height="29" as="geometry" />
        </mxCell>
        <mxCell id="5-6KHhTlgi9XyhgY7AJ1-9" value="" style="rounded=0;whiteSpace=wrap;html=1;fillColor=#dae8fc;strokeColor=#6c8ebf;flipH=1;" vertex="1" parent="1">
          <mxGeometry x="414" y="165" width="25" height="25" as="geometry" />
        </mxCell>
        <mxCell id="5-6KHhTlgi9XyhgY7AJ1-10" value="" style="rounded=0;whiteSpace=wrap;html=1;fillColor=#d5e8d4;strokeColor=#82b366;flipH=1;" vertex="1" parent="1">
          <mxGeometry x="446" y="165" width="25" height="25" as="geometry" />
        </mxCell>
        <mxCell id="5-6KHhTlgi9XyhgY7AJ1-11" value="" style="rounded=0;whiteSpace=wrap;html=1;fillColor=#e1d5e7;strokeColor=#9673a6;flipH=1;" vertex="1" parent="1">
          <mxGeometry x="477" y="165" width="25" height="25" as="geometry" />
        </mxCell>
        <mxCell id="5-6KHhTlgi9XyhgY7AJ1-12" value="" style="rounded=0;whiteSpace=wrap;html=1;fillColor=#f5f5f5;strokeColor=#666666;fontColor=#333333;" vertex="1" parent="1">
          <mxGeometry x="286" y="165" width="25" height="25" as="geometry" />
        </mxCell>
        <mxCell id="5-6KHhTlgi9XyhgY7AJ1-13" value="" style="rounded=0;whiteSpace=wrap;html=1;fillColor=#fff2cc;strokeColor=#d6b656;flipH=1;" vertex="1" parent="1">
          <mxGeometry x="382" y="165" width="25" height="25" as="geometry" />
        </mxCell>
        <mxCell id="5-6KHhTlgi9XyhgY7AJ1-17" value="Visual Reasoner" style="rounded=1;whiteSpace=wrap;html=1;fillColor=#d5e8d4;gradientColor=#97d077;strokeColor=#82b366;verticalAlign=middle;" vertex="1" parent="1">
          <mxGeometry x="561" y="153" width="117" height="60" as="geometry" />
        </mxCell>
        <mxCell id="5-6KHhTlgi9XyhgY7AJ1-18" value="" style="rounded=0;whiteSpace=wrap;html=1;fillColor=#f5f5f5;strokeColor=#666666;fontColor=#333333;" vertex="1" parent="1">
          <mxGeometry x="255" y="165" width="25" height="25" as="geometry" />
        </mxCell>
        <mxCell id="5-6KHhTlgi9XyhgY7AJ1-19" value="" style="rounded=0;whiteSpace=wrap;html=1;fillColor=#f5f5f5;strokeColor=#666666;fontColor=#333333;" vertex="1" parent="1">
          <mxGeometry x="223" y="165" width="25" height="25" as="geometry" />
        </mxCell>
        <mxCell id="5-6KHhTlgi9XyhgY7AJ1-20" value="" style="rounded=0;whiteSpace=wrap;html=1;fillColor=#f5f5f5;strokeColor=#666666;fontColor=#333333;" vertex="1" parent="1">
          <mxGeometry x="191" y="165" width="25" height="25" as="geometry" />
        </mxCell>
        <mxCell id="5-6KHhTlgi9XyhgY7AJ1-21" value="" style="rounded=0;whiteSpace=wrap;html=1;fillColor=#f8cecc;strokeColor=#b85450;flipH=1;" vertex="1" parent="1">
          <mxGeometry x="509" y="165" width="25" height="25" as="geometry" />
        </mxCell>
        <mxCell id="5-6KHhTlgi9XyhgY7AJ1-22" value="" style="rounded=0;whiteSpace=wrap;html=1;fillColor=#f5f5f5;strokeColor=#666666;fontColor=#333333;" vertex="1" parent="1">
          <mxGeometry x="318" y="165" width="25" height="25" as="geometry" />
        </mxCell>
        <mxCell id="5-6KHhTlgi9XyhgY7AJ1-23" value="" style="rounded=0;whiteSpace=wrap;html=1;" vertex="1" parent="1">
          <mxGeometry x="629" y="40" width="25" height="25" as="geometry" />
        </mxCell>
        <mxCell id="5-6KHhTlgi9XyhgY7AJ1-24" value="" style="rounded=0;whiteSpace=wrap;html=1;" vertex="1" parent="1">
          <mxGeometry x="598" y="40" width="25" height="25" as="geometry" />
        </mxCell>
        <mxCell id="5-6KHhTlgi9XyhgY7AJ1-25" value="" style="rounded=0;whiteSpace=wrap;html=1;" vertex="1" parent="1">
          <mxGeometry x="566" y="40" width="25" height="25" as="geometry" />
        </mxCell>
        <mxCell id="5-6KHhTlgi9XyhgY7AJ1-26" value="" style="rounded=0;whiteSpace=wrap;html=1;" vertex="1" parent="1">
          <mxGeometry x="534" y="40" width="25" height="25" as="geometry" />
        </mxCell>
        <mxCell id="5-6KHhTlgi9XyhgY7AJ1-27" value="" style="rounded=0;whiteSpace=wrap;html=1;" vertex="1" parent="1">
          <mxGeometry x="661" y="40" width="25" height="25" as="geometry" />
        </mxCell>
        <mxCell id="5-6KHhTlgi9XyhgY7AJ1-30" value="$$\mathbf{r}(\mathbf{z}) $$" style="text;html=1;align=center;verticalAlign=middle;whiteSpace=wrap;rounded=0;" vertex="1" parent="1">
          <mxGeometry x="585" y="192" width="60" height="14" as="geometry" />
        </mxCell>
        <mxCell id="5-6KHhTlgi9XyhgY7AJ1-38" value="$$\mathbf{H_v}$$" style="text;html=1;align=center;verticalAlign=middle;whiteSpace=wrap;rounded=0;" vertex="1" parent="1">
          <mxGeometry x="428.5" y="190" width="60" height="30" as="geometry" />
        </mxCell>
        <mxCell id="5-6KHhTlgi9XyhgY7AJ1-39" value="$$\mathbf{H_q}$$" style="text;html=1;align=center;verticalAlign=middle;whiteSpace=wrap;rounded=0;" vertex="1" parent="1">
          <mxGeometry x="243" y="190" width="60" height="30" as="geometry" />
        </mxCell>
        <mxCell id="5-6KHhTlgi9XyhgY7AJ1-40" value="" style="edgeStyle=segmentEdgeStyle;endArrow=classic;html=1;curved=0;rounded=0;endSize=8;startSize=8;entryX=0.5;entryY=0;entryDx=0;entryDy=0;exitX=1;exitY=0.5;exitDx=0;exitDy=0;" edge="1" parent="1" source="5-6KHhTlgi9XyhgY7AJ1-58" target="5-6KHhTlgi9XyhgY7AJ1-17">
          <mxGeometry width="50" height="50" relative="1" as="geometry">
            <mxPoint x="534.0000000000002" y="130.5" as="sourcePoint" />
            <mxPoint x="639.5" y="151" as="targetPoint" />
          </mxGeometry>
        </mxCell>
        <mxCell id="5-6KHhTlgi9XyhgY7AJ1-44" value="" style="edgeStyle=elbowEdgeStyle;elbow=horizontal;endArrow=classic;html=1;curved=0;rounded=0;endSize=8;startSize=8;entryX=1;entryY=0.5;entryDx=0;entryDy=0;exitX=0.5;exitY=1;exitDx=0;exitDy=0;" edge="1" parent="1" source="5-6KHhTlgi9XyhgY7AJ1-17" target="5-6KHhTlgi9XyhgY7AJ1-14">
          <mxGeometry width="50" height="50" relative="1" as="geometry">
            <mxPoint x="733" y="276" as="sourcePoint" />
            <mxPoint x="480" y="147" as="targetPoint" />
            <Array as="points">
              <mxPoint x="619" y="228" />
            </Array>
          </mxGeometry>
        </mxCell>
        <mxCell id="5-6KHhTlgi9XyhgY7AJ1-45" value="$$\mathbf{X_v}$$" style="text;html=1;align=center;verticalAlign=middle;whiteSpace=wrap;rounded=0;" vertex="1" parent="1">
          <mxGeometry x="436" y="264" width="60" height="30" as="geometry" />
        </mxCell>
        <mxCell id="5-6KHhTlgi9XyhgY7AJ1-46" value="$$\mathbf{X_q}$$" style="text;html=1;align=center;verticalAlign=middle;whiteSpace=wrap;rounded=0;" vertex="1" parent="1">
          <mxGeometry x="243" y="264" width="60" height="30" as="geometry" />
        </mxCell>
        <mxCell id="5-6KHhTlgi9XyhgY7AJ1-48" value="&lt;i&gt;&quot;Hint&quot;&lt;/i&gt;" style="text;html=1;align=center;verticalAlign=middle;whiteSpace=wrap;rounded=0;" vertex="1" parent="1">
          <mxGeometry x="564" y="239" width="60" height="30" as="geometry" />
        </mxCell>
        <mxCell id="5-6KHhTlgi9XyhgY7AJ1-49" value="Response:" style="text;html=1;align=center;verticalAlign=middle;whiteSpace=wrap;rounded=0;" vertex="1" parent="1">
          <mxGeometry x="433" y="37.5" width="60" height="30" as="geometry" />
        </mxCell>
        <mxCell id="5-6KHhTlgi9XyhgY7AJ1-55" value="" style="html=1;shadow=0;dashed=0;align=center;verticalAlign=middle;shape=mxgraph.arrows2.arrow;dy=0.68;dx=16.5;direction=north;notch=0;" vertex="1" parent="1">
          <mxGeometry x="248" y="221" width="39" height="39" as="geometry" />
        </mxCell>
        <mxCell id="5-6KHhTlgi9XyhgY7AJ1-56" value="Image:" style="text;html=1;align=center;verticalAlign=middle;whiteSpace=wrap;rounded=0;" vertex="1" parent="1">
          <mxGeometry x="402" y="264" width="60" height="30" as="geometry" />
        </mxCell>
        <mxCell id="5-6KHhTlgi9XyhgY7AJ1-57" value="Instruction:" style="text;html=1;align=center;verticalAlign=middle;whiteSpace=wrap;rounded=0;" vertex="1" parent="1">
          <mxGeometry x="197" y="264" width="60" height="30" as="geometry" />
        </mxCell>
        <mxCell id="5-6KHhTlgi9XyhgY7AJ1-58" value="" style="rounded=0;whiteSpace=wrap;html=1;dashed=1;fillColor=#bac8d3;strokeColor=#23445d;dashPattern=1 1;" vertex="1" parent="1">
          <mxGeometry x="511" y="114" width="23" height="29" as="geometry" />
        </mxCell>
        <mxCell id="5-6KHhTlgi9XyhgY7AJ1-59" value="$$f_{\mathrm{LM}}$$" style="text;html=1;align=center;verticalAlign=middle;resizable=0;points=[];autosize=1;strokeColor=none;fillColor=none;" vertex="1" parent="1">
          <mxGeometry x="294" y="81.5" width="131" height="26" as="geometry" />
        </mxCell>
        <mxCell id="5-6KHhTlgi9XyhgY7AJ1-60" value="$$ H_{\text{last}}$$" style="text;html=1;align=center;verticalAlign=middle;whiteSpace=wrap;rounded=0;" vertex="1" parent="1">
          <mxGeometry x="548.5" y="101" width="60" height="30" as="geometry" />
        </mxCell>
        <mxCell id="5-6KHhTlgi9XyhgY7AJ1-63" value="$$\mathbf{X_a}$$" style="text;html=1;align=center;verticalAlign=middle;whiteSpace=wrap;rounded=0;" vertex="1" parent="1">
          <mxGeometry x="474" y="37.5" width="60" height="30" as="geometry" />
        </mxCell>
      </root>
    </mxGraphModel>
  </diagram>
</mxfile>
